<svg width="1979" height="378" viewBox="0 0 1979 378" fill="none" xmlns="http://www.w3.org/2000/svg">
<g filter="url(#filter0_d_3319_79)">
<path d="M403.01 126.98C403.01 121.355 405.119 116.521 409.338 112.479C413.732 108.26 419.006 104.92 425.158 102.459C431.311 99.8223 437.727 97.8887 444.406 96.6582C451.086 95.252 456.799 94.5488 461.545 94.5488C466.291 94.5488 471.037 95.3398 475.783 96.9219C480.705 98.5039 485.012 100.789 488.703 103.777C492.395 106.59 495.207 110.281 497.141 114.852C499.25 119.246 499.953 124.344 499.25 130.145C498.371 139.109 495.383 147.02 490.285 153.875C485.363 160.73 479.211 166.531 471.828 171.277C464.621 175.848 456.711 179.363 448.098 181.824C439.66 184.109 431.486 185.252 423.576 185.252C423.576 191.756 423.84 198.26 424.367 204.764C424.895 211.092 425.422 217.508 425.949 224.012C426.652 230.516 427.268 237.02 427.795 243.523C428.322 249.852 428.586 256.268 428.586 262.771C428.586 264.705 428.41 266.551 428.059 268.309C427.707 269.891 426.125 271.121 423.312 272L418.039 266.99C418.039 266.814 417.775 264.354 417.248 259.607C416.721 254.861 415.93 248.709 414.875 241.15C413.996 233.592 412.941 225.066 411.711 215.574C410.656 205.906 409.602 196.238 408.547 186.57C407.492 176.902 406.438 167.586 405.383 158.621C404.504 149.656 403.713 141.922 403.01 135.418C403.01 135.242 403.01 134.803 403.01 134.1C403.01 133.396 403.01 132.605 403.01 131.727C403.01 130.848 403.01 129.969 403.01 129.09C403.01 128.211 403.01 127.508 403.01 126.98ZM417.775 136.473C417.775 140.164 417.775 143.592 417.775 146.756C417.951 149.92 418.215 152.996 418.566 155.984C419.094 158.973 419.709 162.049 420.412 165.213C421.115 168.377 422.082 171.98 423.312 176.023C428.762 175.145 435.266 173.475 442.824 171.014C450.383 168.553 457.59 165.213 464.445 160.994C471.477 156.775 477.365 151.941 482.111 146.492C486.857 140.867 489.23 134.627 489.23 127.771C489.23 124.08 488.352 120.828 486.594 118.016C484.836 115.027 482.551 112.566 479.738 110.633C477.102 108.699 474.113 107.205 470.773 106.15C467.434 105.096 464.182 104.568 461.018 104.568C455.92 104.568 450.734 105.184 445.461 106.414C440.363 107.645 435.705 109.578 431.486 112.215C427.443 114.852 424.104 118.191 421.467 122.234C419.006 126.277 417.775 131.023 417.775 136.473ZM499.914 249.324C499.914 239.305 502.639 232.01 508.088 227.439C513.713 222.869 521.008 220.584 529.973 220.584C533.489 220.584 536.741 220.672 539.729 220.848C542.893 221.023 545.881 221.463 548.694 222.166C551.506 222.869 554.231 223.924 556.868 225.33C559.68 226.736 562.58 228.758 565.569 231.395C565.569 230.867 565.569 229.812 565.569 228.23C565.745 226.473 565.832 224.627 565.832 222.693C565.832 220.76 565.832 219.002 565.832 217.42C565.832 215.662 565.832 214.432 565.832 213.729C565.657 210.564 565.569 206.521 565.569 201.6C565.569 196.502 565.129 191.316 564.25 186.043C563.547 180.77 561.965 175.76 559.504 171.014C557.219 166.268 553.44 162.664 548.166 160.203C544.475 160.203 541.047 160.818 537.883 162.049C534.719 163.279 531.555 164.598 528.391 166.004C525.227 167.41 522.063 168.729 518.899 169.959C515.735 171.014 512.307 171.541 508.616 171.541C508.616 167.146 509.934 163.543 512.571 160.73C515.383 157.742 518.723 155.457 522.59 153.875C526.457 152.293 530.5 151.238 534.719 150.711C538.938 150.184 542.629 149.92 545.793 149.92C548.957 150.447 551.858 151.062 554.495 151.766C557.307 152.469 559.856 153.875 562.141 155.984C564.602 158.094 566.799 161.346 568.733 165.74C570.842 169.959 572.6 175.936 574.006 183.67C575.588 191.404 576.907 201.248 577.961 213.201C579.192 224.979 580.159 239.48 580.862 256.707C581.213 258.992 580.422 261.014 578.489 262.771C576.731 264.354 574.27 265.76 571.106 266.99C567.942 268.045 564.338 269.012 560.295 269.891C556.428 270.594 552.473 271.121 548.43 271.473C544.387 271.824 540.52 272.088 536.829 272.264C533.137 272.439 530.061 272.527 527.6 272.527C524.436 272.527 521.184 272 517.844 270.945C514.68 269.891 511.692 268.396 508.879 266.463C506.243 264.354 504.045 261.893 502.287 259.08C500.705 256.092 499.914 252.84 499.914 249.324ZM534.192 230.867C525.403 233.328 519.25 236.316 515.735 239.832C512.219 243.172 510.637 246.424 510.989 249.588C511.516 252.752 513.625 255.652 517.317 258.289C521.008 260.75 525.491 262.42 530.764 263.299C536.037 264.002 541.75 263.562 547.903 261.98C554.055 260.223 559.944 256.883 565.569 251.961C563.459 246.863 561.35 242.996 559.241 240.359C557.131 237.547 554.846 235.438 552.385 234.031C549.924 232.625 547.2 231.746 544.211 231.395C541.223 231.043 537.883 230.867 534.192 230.867ZM583.372 155.457L591.546 147.283L649.554 252.752L674.339 150.711C675.569 151.238 676.887 151.678 678.294 152.029C679.7 152.205 680.93 152.469 681.985 152.82C683.216 152.996 684.182 153.26 684.886 153.611C685.589 153.963 685.94 154.578 685.94 155.457C683.655 166.707 681.458 177.254 679.348 187.098C677.415 196.941 675.305 206.521 673.02 215.838C670.735 225.154 668.274 234.559 665.637 244.051C663.001 253.367 659.925 263.123 656.409 273.318H646.126L583.372 155.457ZM697.943 169.695C700.052 169.695 701.81 169.607 703.216 169.432C704.798 169.256 706.116 170.135 707.171 172.068C707.698 179.979 708.314 188.064 709.017 196.326C709.72 204.412 710.423 212.586 711.126 220.848C711.829 229.109 712.269 237.459 712.445 245.896C712.796 254.158 712.884 262.244 712.708 270.154C712.708 271.209 712.445 271.824 711.917 272C711.39 272.352 710.599 272.439 709.544 272.264C708.665 272.264 707.523 272.176 706.116 272C704.886 272 703.48 272.176 701.898 272.527L697.943 169.695ZM682.65 122.498C682.65 121.268 682.737 119.949 682.913 118.543C683.089 116.961 683.441 115.555 683.968 114.324C684.671 113.094 685.462 112.039 686.341 111.16C687.396 110.281 688.626 109.842 690.032 109.842C692.142 109.842 694.251 109.93 696.361 110.105C698.47 110.281 700.491 110.721 702.425 111.424C704.359 111.951 705.941 112.918 707.171 114.324C708.402 115.555 709.017 117.4 709.017 119.861C709.017 124.08 707.435 127.859 704.271 131.199C701.107 134.363 697.239 135.945 692.669 135.945C689.154 135.945 686.605 134.627 685.023 131.99C683.441 129.178 682.65 126.014 682.65 122.498ZM697.943 123.816C697.415 123.816 697.152 124.256 697.152 125.135C697.152 126.014 697.415 126.453 697.943 126.453C698.646 126.453 698.997 126.014 698.997 125.135C698.997 124.256 698.646 123.816 697.943 123.816ZM750.55 176.287C748.968 175.76 746.771 175.584 743.959 175.76C741.322 175.76 738.421 175.936 735.257 176.287C732.269 176.463 729.369 176.727 726.556 177.078C723.744 177.43 721.371 177.605 719.437 177.605C718.558 177.605 717.943 176.375 717.591 173.914C717.416 171.277 717.064 167.762 716.537 163.367L753.714 160.73C754.242 154.578 754.593 150.184 754.769 147.547C754.945 144.91 754.945 142.713 754.769 140.955C754.769 139.021 754.681 136.912 754.505 134.627C754.505 132.166 754.505 128.387 754.505 123.289C759.076 122.586 762.504 122.41 764.789 122.762C767.25 122.937 768.92 123.553 769.798 124.607C770.677 125.662 771.029 127.244 770.853 129.354C770.853 131.287 770.589 133.748 770.062 136.736C769.711 139.725 769.359 143.328 769.007 147.547C768.832 151.766 769.007 156.512 769.535 161.785L801.175 160.73V173.65C799.769 173.65 797.572 173.738 794.584 173.914C791.595 174.09 788.343 174.266 784.828 174.441C781.488 174.617 778.324 174.793 775.336 174.969C772.523 175.145 770.414 175.496 769.007 176.023C767.601 182.352 766.107 189.119 764.525 196.326C762.943 203.533 761.888 210.652 761.361 217.684C760.834 224.715 761.009 231.307 761.888 237.459C762.767 243.436 764.964 248.445 768.48 252.488C771.996 256.355 777.005 259.08 783.509 260.662C790.013 262.068 798.627 261.541 809.349 259.08C808.998 261.717 807.943 263.914 806.185 265.672C804.603 267.254 802.67 268.572 800.384 269.627C798.275 270.506 795.99 271.209 793.529 271.736C791.068 272.088 788.871 272.264 786.937 272.264C777.972 272.264 770.853 270.682 765.58 267.518C760.306 264.178 756.351 259.871 753.714 254.598C751.078 249.324 749.408 243.348 748.705 236.668C748.002 229.812 747.738 222.869 747.914 215.838C748.265 208.807 748.793 201.863 749.496 195.008C750.199 188.152 750.55 181.912 750.55 176.287ZM823.725 91.1211L830.58 177.605C831.811 176.551 833.393 174.969 835.326 172.859C837.26 170.75 839.545 168.816 842.182 167.059C844.818 165.125 847.719 163.543 850.883 162.312C854.047 160.906 857.475 160.291 861.166 160.467C868.373 161.17 874.086 164.07 878.305 169.168C882.699 174.266 885.951 180.506 888.061 187.889C890.346 195.271 891.84 203.357 892.543 212.146C893.246 220.76 893.422 229.021 893.07 236.932C892.895 244.842 892.455 251.873 891.752 258.025C891.225 264.178 890.785 268.396 890.434 270.682L880.941 269.363C880.941 267.781 880.941 265.32 880.941 261.98C881.117 258.465 881.293 254.422 881.469 249.852C881.645 245.105 881.732 240.184 881.732 235.086C881.732 229.988 881.732 225.242 881.732 220.848C881.908 216.277 881.908 212.234 881.732 208.719C881.732 205.203 881.645 202.742 881.469 201.336C881.645 196.414 880.678 191.668 878.568 187.098C876.459 182.527 873.646 179.1 870.131 176.814C866.615 174.354 862.396 173.562 857.475 174.441C852.553 175.145 847.279 178.572 841.654 184.725C836.732 192.107 833.129 199.402 830.844 206.609C828.559 213.641 827.064 220.672 826.361 227.703C825.658 234.559 825.395 241.678 825.57 249.061C825.746 256.268 825.746 263.914 825.57 272L815.287 270.418C815.814 268.484 816.166 264.969 816.342 259.871C816.693 254.598 816.957 248.357 817.133 241.15C817.309 233.768 817.396 225.594 817.396 216.629C817.572 207.664 817.572 198.436 817.396 188.943C817.396 179.275 817.309 169.607 817.133 159.939C816.957 150.271 816.693 141.043 816.342 132.254C816.166 123.465 815.902 115.379 815.551 107.996C815.375 100.613 815.199 94.5488 815.023 89.8027L823.725 91.1211ZM896.899 169.168C899.008 168.289 900.854 168.113 902.436 168.641C904.018 169.168 905.336 170.135 906.391 171.541C907.446 172.947 908.237 174.617 908.764 176.551C909.291 178.309 909.731 180.066 910.082 181.824C912.368 177.957 915.62 174.881 919.838 172.596C924.233 170.135 928.891 168.553 933.813 167.85C938.735 166.971 943.657 166.795 948.579 167.322C953.5 167.674 957.631 168.729 960.971 170.486C964.487 172.068 966.948 174.354 968.354 177.342C969.76 180.154 969.409 183.494 967.299 187.361C962.729 184.725 957.895 182.615 952.797 181.033C947.875 179.451 943.041 178.924 938.295 179.451C933.549 179.979 929.155 181.824 925.112 184.988C921.069 187.977 917.729 192.811 915.092 199.49C912.455 206.17 910.786 215.047 910.082 226.121C909.555 237.02 910.346 250.643 912.455 266.99H902.436C902.436 266.99 902.26 265.584 901.909 262.771C901.733 259.783 901.469 255.916 901.118 251.17C900.942 246.424 900.59 241.15 900.063 235.35C899.711 229.549 899.36 223.66 899.008 217.684C898.657 211.707 898.305 205.994 897.954 200.545C897.778 194.92 897.514 190.086 897.163 186.043C897.163 185.516 897.075 184.461 896.899 182.879C896.899 181.297 896.899 179.627 896.899 177.869C896.899 175.936 896.899 174.178 896.899 172.596C896.899 171.014 896.899 169.871 896.899 169.168ZM973.764 249.324C973.764 239.305 976.489 232.01 981.938 227.439C987.563 222.869 994.858 220.584 1003.82 220.584C1007.34 220.584 1010.59 220.672 1013.58 220.848C1016.74 221.023 1019.73 221.463 1022.54 222.166C1025.36 222.869 1028.08 223.924 1030.72 225.33C1033.53 226.736 1036.43 228.758 1039.42 231.395C1039.42 230.867 1039.42 229.812 1039.42 228.23C1039.59 226.473 1039.68 224.627 1039.68 222.693C1039.68 220.76 1039.68 219.002 1039.68 217.42C1039.68 215.662 1039.68 214.432 1039.68 213.729C1039.51 210.564 1039.42 206.521 1039.42 201.6C1039.42 196.502 1038.98 191.316 1038.1 186.043C1037.4 180.77 1035.82 175.76 1033.35 171.014C1031.07 166.268 1027.29 162.664 1022.02 160.203C1018.33 160.203 1014.9 160.818 1011.73 162.049C1008.57 163.279 1005.41 164.598 1002.24 166.004C999.077 167.41 995.913 168.729 992.749 169.959C989.585 171.014 986.157 171.541 982.466 171.541C982.466 167.146 983.784 163.543 986.421 160.73C989.233 157.742 992.573 155.457 996.44 153.875C1000.31 152.293 1004.35 151.238 1008.57 150.711C1012.79 150.184 1016.48 149.92 1019.64 149.92C1022.81 150.447 1025.71 151.062 1028.34 151.766C1031.16 152.469 1033.71 153.875 1035.99 155.984C1038.45 158.094 1040.65 161.346 1042.58 165.74C1044.69 169.959 1046.45 175.936 1047.86 183.67C1049.44 191.404 1050.76 201.248 1051.81 213.201C1053.04 224.979 1054.01 239.48 1054.71 256.707C1055.06 258.992 1054.27 261.014 1052.34 262.771C1050.58 264.354 1048.12 265.76 1044.96 266.99C1041.79 268.045 1038.19 269.012 1034.15 269.891C1030.28 270.594 1026.32 271.121 1022.28 271.473C1018.24 271.824 1014.37 272.088 1010.68 272.264C1006.99 272.439 1003.91 272.527 1001.45 272.527C998.286 272.527 995.034 272 991.694 270.945C988.53 269.891 985.542 268.396 982.729 266.463C980.093 264.354 977.895 261.893 976.138 259.08C974.555 256.092 973.764 252.84 973.764 249.324ZM1008.04 230.867C999.253 233.328 993.1 236.316 989.585 239.832C986.069 243.172 984.487 246.424 984.839 249.588C985.366 252.752 987.475 255.652 991.167 258.289C994.858 260.75 999.341 262.42 1004.61 263.299C1009.89 264.002 1015.6 263.562 1021.75 261.98C1027.91 260.223 1033.79 256.883 1039.42 251.961C1037.31 246.863 1035.2 242.996 1033.09 240.359C1030.98 237.547 1028.7 235.438 1026.24 234.031C1023.77 232.625 1021.05 231.746 1018.06 231.395C1015.07 231.043 1011.73 230.867 1008.04 230.867ZM1059.59 169.168C1061.7 169.168 1063.99 169.695 1066.45 170.75C1068.91 171.805 1070.67 173.914 1071.72 177.078C1073.13 171.102 1075.24 166.268 1078.05 162.576C1081.04 158.885 1084.38 156.336 1088.07 154.93C1091.94 153.523 1095.89 153.084 1099.94 153.611C1104.16 153.963 1108.02 155.193 1111.54 157.303C1115.23 159.412 1118.39 162.137 1121.03 165.477C1123.84 168.816 1125.78 172.684 1126.83 177.078C1128.76 171.629 1131.31 166.619 1134.48 162.049C1137.82 157.303 1141.42 153.348 1145.29 150.184C1149.33 147.02 1153.46 144.822 1157.68 143.592C1162.08 142.361 1166.12 142.449 1169.81 143.855C1173.68 145.086 1177.02 147.898 1179.83 152.293C1182.82 156.512 1184.93 162.664 1186.16 170.75C1186.51 173.035 1186.95 176.463 1187.48 181.033C1188 185.428 1188.53 190.438 1189.06 196.062C1189.76 201.688 1190.46 207.664 1191.17 213.992C1192.05 220.145 1192.75 226.033 1193.28 231.658C1193.98 237.283 1194.59 242.381 1195.12 246.951C1195.65 251.346 1196.09 254.598 1196.44 256.707C1196.44 258.465 1196.35 260.398 1196.18 262.508C1196 264.617 1195.56 266.463 1194.86 268.045C1194.33 269.451 1193.36 270.418 1191.96 270.945C1190.73 271.297 1188.79 270.506 1186.16 268.572C1186.16 266.463 1185.89 263.035 1185.37 258.289C1184.84 253.543 1184.31 248.094 1183.78 241.941C1183.26 235.613 1182.55 229.021 1181.67 222.166C1180.97 215.135 1180.18 208.543 1179.3 202.391C1178.6 196.238 1177.98 190.789 1177.46 186.043C1176.93 181.297 1176.4 177.957 1175.87 176.023C1173.24 167.938 1170.42 162.312 1167.44 159.148C1164.62 155.984 1161.72 154.578 1158.74 154.93C1155.92 155.281 1153.2 157.127 1150.56 160.467C1147.92 163.807 1145.55 168.025 1143.44 173.123C1141.33 178.221 1139.31 183.934 1137.38 190.262C1135.62 196.414 1134.21 202.566 1133.16 208.719C1132.28 214.871 1131.67 220.672 1131.31 226.121C1131.14 231.57 1131.49 236.053 1132.37 239.568L1122.09 241.678C1122.61 224.803 1122 211.004 1120.24 200.281C1118.66 189.383 1116.37 181.033 1113.38 175.232C1110.57 169.432 1107.32 166.004 1103.63 164.949C1099.94 163.719 1096.25 164.422 1092.55 167.059C1089.04 169.695 1085.79 174.09 1082.8 180.242C1079.81 186.395 1077.52 193.865 1075.94 202.654C1074.54 211.268 1074.01 221.023 1074.36 231.922C1074.71 242.82 1076.56 254.51 1079.9 266.99H1069.88C1069.88 266.99 1069.61 265.32 1069.09 261.98C1068.74 258.641 1068.21 254.422 1067.51 249.324C1066.98 244.051 1066.36 238.162 1065.66 231.658C1064.96 224.979 1064.25 218.299 1063.55 211.619C1062.85 204.764 1062.14 198.26 1061.44 192.107C1060.74 185.779 1060.12 180.418 1059.59 176.023C1059.59 175.496 1059.59 174.354 1059.59 172.596C1059.59 170.662 1059.59 169.52 1059.59 169.168ZM1294.01 128.826L1298.23 115.115C1298.4 114.939 1299.72 114.764 1302.18 114.588C1304.82 114.236 1308.25 113.885 1312.47 113.533C1316.69 113.006 1321.43 112.479 1326.71 111.951C1331.98 111.424 1337.34 110.896 1342.79 110.369C1348.41 109.842 1353.86 109.314 1359.14 108.787C1364.59 108.26 1369.6 107.732 1374.17 107.205C1374.17 107.205 1374.96 107.205 1376.54 107.205C1378.12 107.205 1379.88 107.205 1381.81 107.205C1383.75 107.205 1385.59 107.205 1387.35 107.205C1389.11 107.205 1390.25 107.205 1390.78 107.205C1395 107.205 1397.9 107.996 1399.48 109.578C1401.06 111.16 1401.85 114.588 1401.85 119.861L1353.86 125.398C1353.51 136.473 1353.69 148.074 1354.39 160.203C1355.09 172.332 1355.97 184.637 1357.03 197.117C1358.08 209.422 1359.05 221.639 1359.93 233.768C1360.98 245.896 1361.51 257.498 1361.51 268.572C1361.51 270.154 1360.98 271.297 1359.93 272C1359.05 272.527 1357.91 272.879 1356.5 273.055C1355.27 273.23 1353.95 273.143 1352.54 272.791C1351.14 272.615 1349.91 272.352 1348.85 272C1348.33 269.715 1347.8 265.76 1347.27 260.135C1346.74 254.51 1346.22 247.918 1345.69 240.359C1345.16 232.801 1344.63 224.627 1344.11 215.838C1343.58 207.049 1343.05 198.26 1342.53 189.471C1342 180.682 1341.47 172.332 1340.94 164.422C1340.42 156.336 1339.98 149.305 1339.62 143.328C1339.27 137.176 1338.92 132.43 1338.57 129.09C1338.39 125.75 1338.22 124.52 1338.04 125.398L1294.01 128.826ZM1392.5 169.168C1394.61 168.289 1396.45 168.113 1398.03 168.641C1399.62 169.168 1400.93 170.135 1401.99 171.541C1403.04 172.947 1403.83 174.617 1404.36 176.551C1404.89 178.309 1405.33 180.066 1405.68 181.824C1407.97 177.957 1411.22 174.881 1415.44 172.596C1419.83 170.135 1424.49 168.553 1429.41 167.85C1434.33 166.971 1439.25 166.795 1444.18 167.322C1449.1 167.674 1453.23 168.729 1456.57 170.486C1460.08 172.068 1462.55 174.354 1463.95 177.342C1465.36 180.154 1465.01 183.494 1462.9 187.361C1458.33 184.725 1453.49 182.615 1448.39 181.033C1443.47 179.451 1438.64 178.924 1433.89 179.451C1429.15 179.979 1424.75 181.824 1420.71 184.988C1416.67 187.977 1413.33 192.811 1410.69 199.49C1408.05 206.17 1406.38 215.047 1405.68 226.121C1405.15 237.02 1405.94 250.643 1408.05 266.99H1398.03C1398.03 266.99 1397.86 265.584 1397.51 262.771C1397.33 259.783 1397.07 255.916 1396.72 251.17C1396.54 246.424 1396.19 241.15 1395.66 235.35C1395.31 229.549 1394.96 223.66 1394.61 217.684C1394.25 211.707 1393.9 205.994 1393.55 200.545C1393.38 194.92 1393.11 190.086 1392.76 186.043C1392.76 185.516 1392.67 184.461 1392.5 182.879C1392.5 181.297 1392.5 179.627 1392.5 177.869C1392.5 175.936 1392.5 174.178 1392.5 172.596C1392.5 171.014 1392.5 169.871 1392.5 169.168ZM1469.36 249.324C1469.36 239.305 1472.09 232.01 1477.54 227.439C1483.16 222.869 1490.46 220.584 1499.42 220.584C1502.94 220.584 1506.19 220.672 1509.18 220.848C1512.34 221.023 1515.33 221.463 1518.14 222.166C1520.95 222.869 1523.68 223.924 1526.32 225.33C1529.13 226.736 1532.03 228.758 1535.02 231.395C1535.02 230.867 1535.02 229.812 1535.02 228.23C1535.19 226.473 1535.28 224.627 1535.28 222.693C1535.28 220.76 1535.28 219.002 1535.28 217.42C1535.28 215.662 1535.28 214.432 1535.28 213.729C1535.1 210.564 1535.02 206.521 1535.02 201.6C1535.02 196.502 1534.58 191.316 1533.7 186.043C1532.99 180.77 1531.41 175.76 1528.95 171.014C1526.67 166.268 1522.89 162.664 1517.61 160.203C1513.92 160.203 1510.49 160.818 1507.33 162.049C1504.17 163.279 1501 164.598 1497.84 166.004C1494.67 167.41 1491.51 168.729 1488.35 169.959C1485.18 171.014 1481.75 171.541 1478.06 171.541C1478.06 167.146 1479.38 163.543 1482.02 160.73C1484.83 157.742 1488.17 155.457 1492.04 153.875C1495.91 152.293 1499.95 151.238 1504.17 150.711C1508.39 150.184 1512.08 149.92 1515.24 149.92C1518.41 150.447 1521.31 151.062 1523.94 151.766C1526.75 152.469 1529.3 153.875 1531.59 155.984C1534.05 158.094 1536.25 161.346 1538.18 165.74C1540.29 169.959 1542.05 175.936 1543.45 183.67C1545.04 191.404 1546.35 201.248 1547.41 213.201C1548.64 224.979 1549.61 239.48 1550.31 256.707C1550.66 258.992 1549.87 261.014 1547.94 262.771C1546.18 264.354 1543.72 265.76 1540.55 266.99C1537.39 268.045 1533.79 269.012 1529.74 269.891C1525.88 270.594 1521.92 271.121 1517.88 271.473C1513.83 271.824 1509.97 272.088 1506.28 272.264C1502.58 272.439 1499.51 272.527 1497.05 272.527C1493.88 272.527 1490.63 272 1487.29 270.945C1484.13 269.891 1481.14 268.396 1478.33 266.463C1475.69 264.354 1473.49 261.893 1471.74 259.08C1470.15 256.092 1469.36 252.84 1469.36 249.324ZM1503.64 230.867C1494.85 233.328 1488.7 236.316 1485.18 239.832C1481.67 243.172 1480.08 246.424 1480.44 249.588C1480.96 252.752 1483.07 255.652 1486.76 258.289C1490.46 260.75 1494.94 262.42 1500.21 263.299C1505.49 264.002 1511.2 263.562 1517.35 261.98C1523.5 260.223 1529.39 256.883 1535.02 251.961C1532.91 246.863 1530.8 242.996 1528.69 240.359C1526.58 237.547 1524.29 235.438 1521.83 234.031C1519.37 232.625 1516.65 231.746 1513.66 231.395C1510.67 231.043 1507.33 230.867 1503.64 230.867ZM1552.82 155.457L1560.99 147.283L1619 252.752L1643.79 150.711C1645.02 151.238 1646.34 151.678 1647.74 152.029C1649.15 152.205 1650.38 152.469 1651.43 152.82C1652.66 152.996 1653.63 153.26 1654.33 153.611C1655.04 153.963 1655.39 154.578 1655.39 155.457C1653.1 166.707 1650.91 177.254 1648.8 187.098C1646.86 196.941 1644.75 206.521 1642.47 215.838C1640.18 225.154 1637.72 234.559 1635.09 244.051C1632.45 253.367 1629.37 263.123 1625.86 273.318H1615.57L1552.82 155.457ZM1656.58 210.037C1656.58 204.764 1657.72 198.963 1660.01 192.635C1662.29 186.131 1665.37 180.154 1669.24 174.705C1673.28 169.08 1677.76 164.422 1682.68 160.73C1687.78 156.863 1693.05 154.93 1698.5 154.93C1701.49 154.93 1704.39 155.545 1707.2 156.775C1710.19 158.006 1713.01 159.676 1715.64 161.785C1718.45 163.719 1720.92 166.004 1723.03 168.641C1725.31 171.102 1727.07 173.738 1728.3 176.551C1729.53 179.363 1730.14 182.088 1730.14 184.725C1730.32 187.361 1729.62 189.646 1728.03 191.58L1672.4 201.863C1671.7 202.039 1671.08 202.918 1670.55 204.5C1670.03 205.906 1669.59 207.752 1669.24 210.037C1668.88 212.322 1668.53 214.871 1668.18 217.684C1668.01 220.32 1667.83 222.957 1667.65 225.594C1667.48 228.055 1667.39 230.34 1667.39 232.449C1667.39 234.383 1667.39 235.877 1667.39 236.932C1667.39 241.854 1668.53 245.896 1670.82 249.061C1673.28 252.049 1676.36 254.334 1680.05 255.916C1683.74 257.498 1687.87 258.553 1692.44 259.08C1697.19 259.607 1701.84 259.871 1706.41 259.871C1710.98 259.871 1715.29 259.695 1719.33 259.344C1723.38 258.992 1726.72 258.816 1729.35 258.816C1729.35 259.52 1729.09 260.311 1728.56 261.189C1728.03 262.068 1727.42 262.947 1726.72 263.826C1726.01 264.529 1725.31 265.232 1724.61 265.936C1723.9 266.463 1723.46 266.814 1723.29 266.99C1721.88 267.342 1719.69 267.869 1716.7 268.572C1713.88 269.1 1710.81 269.627 1707.47 270.154C1704.3 270.682 1701.32 271.121 1698.5 271.473C1695.69 271.824 1693.76 272 1692.7 272C1687.25 273.055 1682.51 272.967 1678.46 271.736C1674.42 270.506 1670.99 268.396 1668.18 265.408C1665.37 262.42 1663.08 258.816 1661.33 254.598C1659.57 250.203 1658.25 245.545 1657.37 240.623C1656.49 235.701 1655.96 230.604 1655.79 225.33C1655.79 220.057 1656.05 214.959 1656.58 210.037ZM1694.81 164.949C1693.23 164.949 1691.12 165.828 1688.48 167.586C1686.02 169.168 1683.65 171.277 1681.36 173.914C1679.26 176.375 1677.41 179.1 1675.83 182.088C1674.42 184.9 1673.98 187.361 1674.51 189.471C1679.08 189.998 1683.83 189.91 1688.75 189.207C1693.67 188.504 1698.15 187.449 1702.19 186.043C1706.24 184.461 1709.58 182.703 1712.21 180.77C1714.85 178.66 1716.08 176.551 1715.91 174.441C1715.91 172.332 1714.24 170.486 1710.9 168.904C1707.73 167.146 1702.37 165.828 1694.81 164.949ZM1744.78 67.127C1747.24 67.4785 1749.35 68.1816 1751.11 69.2363C1753.04 70.1152 1754.54 71.7852 1755.59 74.2461C1755.59 77.5859 1755.68 82.2441 1755.86 88.2207C1756.21 94.0215 1756.47 100.789 1756.65 108.523C1757 116.258 1757.35 124.607 1757.7 133.572C1758.05 142.537 1758.41 151.59 1758.76 160.73C1759.11 169.871 1759.37 178.924 1759.55 187.889C1759.9 196.854 1760.16 205.203 1760.34 212.938C1760.69 220.672 1760.96 227.527 1761.13 233.504C1761.31 239.48 1761.48 244.051 1761.66 247.215C1761.66 247.566 1761.57 248.182 1761.39 249.061C1761.39 249.939 1761.31 250.994 1761.13 252.225C1761.13 253.455 1761.04 254.686 1760.87 255.916C1760.87 256.971 1760.87 257.762 1760.87 258.289C1760.69 259.344 1760.6 260.662 1760.6 262.244C1760.6 263.65 1760.43 265.057 1760.08 266.463C1759.72 267.869 1759.11 269.188 1758.23 270.418C1757.53 271.473 1756.3 272.088 1754.54 272.264L1750.06 266.727C1749.88 266.551 1749.62 263.299 1749.27 256.971C1749.09 250.467 1748.74 242.117 1748.21 231.922C1747.86 221.551 1747.51 209.949 1747.16 197.117C1746.8 184.109 1746.37 171.014 1745.84 157.83C1745.49 144.646 1745.13 131.99 1744.78 119.861C1744.43 107.732 1744.17 97.2734 1743.99 88.4844C1743.99 87.7812 1743.99 86.375 1743.99 84.2656C1744.17 82.1562 1744.26 80.0469 1744.26 77.9375C1744.43 75.6523 1744.52 73.543 1744.52 71.6094C1744.7 69.5 1744.78 68.0059 1744.78 67.127ZM1785 250.643C1788.16 250.643 1791.06 251.258 1793.7 252.488C1796.51 253.719 1799.24 255.125 1801.87 256.707C1804.51 258.113 1807.15 259.432 1809.78 260.662C1812.6 261.717 1815.58 262.244 1818.75 262.244C1822.44 262.244 1826.22 261.629 1830.09 260.398C1834.13 258.992 1837.82 257.146 1841.16 254.861C1844.5 252.4 1847.22 249.5 1849.33 246.16C1851.44 242.645 1852.5 238.865 1852.5 234.822C1852.67 233.592 1852.67 232.098 1852.5 230.34C1852.5 228.582 1851.97 226.824 1850.92 225.066C1849.86 223.133 1848.1 221.375 1845.64 219.793C1843.18 218.035 1839.58 216.717 1834.83 215.838C1830.26 214.959 1824.46 214.52 1817.43 214.52C1810.4 214.344 1801.7 214.959 1791.33 216.365C1788.69 216.365 1786.14 215.662 1783.68 214.256C1781.22 212.674 1779.02 210.828 1777.09 208.719C1775.15 206.434 1773.57 204.061 1772.34 201.6C1771.11 198.963 1770.5 196.502 1770.5 194.217C1770.5 187.361 1771.9 181.824 1774.72 177.605C1777.7 173.211 1781.48 169.783 1786.05 167.322C1790.62 164.686 1795.72 162.84 1801.35 161.785C1806.97 160.73 1812.68 160.203 1818.48 160.203C1821.12 160.203 1824.11 160.379 1827.45 160.73C1830.97 160.906 1834.13 161.609 1836.94 162.84C1839.93 163.895 1842.39 165.652 1844.32 168.113C1846.43 170.574 1847.49 174.002 1847.49 178.396C1847.14 181.385 1846.61 183.23 1845.91 183.934C1845.38 184.461 1844.5 184.285 1843.27 183.406C1842.22 182.352 1840.9 180.945 1839.31 179.188C1837.73 177.43 1835.8 175.76 1833.51 174.178C1831.4 172.42 1828.77 171.102 1825.6 170.223C1822.62 169.344 1819.19 169.344 1815.32 170.223C1811.28 170.223 1807.23 170.662 1803.19 171.541C1799.15 172.244 1795.46 173.562 1792.12 175.496C1788.95 177.43 1786.32 180.066 1784.21 183.406C1782.27 186.746 1781.31 190.965 1781.31 196.062C1781.31 198.699 1782.45 200.545 1784.73 201.6C1787.2 202.479 1790.36 202.918 1794.23 202.918C1798.27 202.918 1802.75 202.83 1807.67 202.654C1812.77 202.303 1817.96 202.127 1823.23 202.127C1828.5 202.127 1833.6 202.566 1838.52 203.445C1843.45 204.148 1847.75 205.73 1851.44 208.191C1855.31 210.477 1858.3 213.816 1860.41 218.211C1862.52 222.605 1863.31 228.318 1862.78 235.35C1862.78 240.447 1861.29 245.281 1858.3 249.852C1855.49 254.422 1851.8 258.465 1847.22 261.98C1842.83 265.32 1837.91 267.957 1832.46 269.891C1827.01 271.824 1821.74 272.527 1816.64 272C1814.53 271.824 1811.63 271.297 1807.94 270.418C1804.42 269.363 1800.91 267.957 1797.39 266.199C1794.05 264.441 1791.15 262.332 1788.69 259.871C1786.23 257.234 1785 254.158 1785 250.643Z" fill="white"/>
</g>
<path fill-rule="evenodd" clip-rule="evenodd" d="M327.413 306.413L198.808 378L142.558 337.141L223.172 297.337L107.99 229.028L327.413 306.413ZM251.189 298.41L168.317 339.33L199.761 362.171L295 309.156L231.612 286.8L251.189 298.41Z" fill="#EFB726"/>
<path fill-rule="evenodd" clip-rule="evenodd" d="M276.639 159.026L332 295.387L112.497 218.23L245.073 237.155L207.194 155.63L276.639 159.026ZM267.581 253.871L245.048 250.653L308.459 272.943L267.461 171.96L228.641 170.061L267.581 253.871Z" fill="#EFB726"/>
<path d="M162.343 0C252.003 0 324.686 72.6701 324.686 162.313C324.686 188.467 318.496 213.173 307.505 235.053L299.526 215.402C300.025 214.112 300.505 212.813 300.969 211.506L301.277 211.682L301.079 211.195C306.47 195.901 309.406 179.451 309.406 162.313C309.406 81.1071 243.564 15.2765 162.343 15.2765C81.122 15.2765 15.2793 81.1071 15.2793 162.313C15.2793 243.519 81.122 309.35 162.343 309.35C183.62 309.35 203.841 304.829 222.1 296.7L223.172 297.337L168.107 324.525C166.194 324.591 164.272 324.626 162.343 324.626C72.6834 324.626 0 251.956 0 162.313C0 72.6701 72.6834 0 162.343 0Z" fill="#EFB726"/>
<path d="M25.672 122.199C24.4903 128.868 23.874 135.732 23.874 142.74C23.874 207.336 76.2488 259.701 140.856 259.701C145.086 259.701 149.262 259.475 153.375 259.037L212.715 294.228C196.93 300.294 179.787 303.621 161.865 303.621C83.5452 303.621 20.0541 240.142 20.0541 161.836C20.0541 148.078 22.0161 134.778 25.672 122.199Z" fill="#EFB726"/>
<path d="M268.291 285.296C268.218 285.359 268.143 285.421 268.07 285.484L251.151 279.517C251.224 279.461 251.298 279.408 251.37 279.352L268.291 285.296Z" fill="#EFB726"/>
<path d="M244.623 276.983C244.551 277.035 244.477 277.086 244.405 277.138L177.942 253.698C178.008 253.676 178.075 253.655 178.141 253.633L244.623 276.983Z" fill="#EFB726"/>
<path d="M277.856 276.355C277.849 276.362 277.843 276.37 277.836 276.377L261.704 270.711C261.713 270.703 261.721 270.694 261.73 270.686L277.856 276.355Z" fill="#EFB726"/>
<path d="M255.354 268.445C255.345 268.454 255.336 268.463 255.326 268.471L194.036 246.944C194.056 246.933 194.076 246.923 194.096 246.912L255.354 268.445Z" fill="#EFB726"/>
<path d="M215.39 232.917L215.361 232.913C215.417 232.867 215.472 232.819 215.528 232.772L215.39 232.917Z" fill="#EFB726"/>
<path d="M236.071 217.783L234.011 213.492C234.025 213.474 234.04 213.457 234.053 213.439L236.071 217.783Z" fill="#EFB726"/>
<path d="M161.865 20.0504C240.186 20.0504 303.677 83.5299 303.677 161.836C303.677 176.076 301.574 189.824 297.667 202.791L278.737 156.162L257.191 155.108C257.618 151.043 257.839 146.917 257.839 142.74C257.839 78.1443 205.464 25.7791 140.856 25.7791C130 25.7791 119.49 27.2597 109.515 30.0263C125.712 23.5902 143.375 20.0504 161.865 20.0504Z" fill="#EFB726"/>
<defs>
<filter id="filter0_d_3319_79" x="399.01" y="67.127" width="1468.56" height="214.455" filterUnits="userSpaceOnUse" color-interpolation-filters="sRGB">
<feFlood flood-opacity="0" result="BackgroundImageFix"/>
<feColorMatrix in="SourceAlpha" type="matrix" values="0 0 0 0 0 0 0 0 0 0 0 0 0 0 0 0 0 0 127 0" result="hardAlpha"/>
<feOffset dy="4"/>
<feGaussianBlur stdDeviation="2"/>
<feComposite in2="hardAlpha" operator="out"/>
<feColorMatrix type="matrix" values="0 0 0 0 0 0 0 0 0 0 0 0 0 0 0 0 0 0 0.25 0"/>
<feBlend mode="normal" in2="BackgroundImageFix" result="effect1_dropShadow_3319_79"/>
<feBlend mode="normal" in="SourceGraphic" in2="effect1_dropShadow_3319_79" result="shape"/>
</filter>
</defs>
</svg>
